<svg xmlns="http://www.w3.org/2000/svg" viewBox="0 0 64 64" role="img" aria-label="三毛猫のアイコン">
  <rect width="64" height="64" rx="14" fill="#1f5133"/>
  <!-- ears -->
  <path d="M12 30 L15 9 Q15.6 5.5 18.6 8 L29 17 Z" fill="#e8933a" stroke="#2a2522" stroke-width="3" stroke-linejoin="round"/>
  <path d="M52 30 L49 9 Q48.4 5.5 45.4 8 L35 17 Z" fill="#2a2522" stroke="#2a2522" stroke-width="3" stroke-linejoin="round"/>
  <!-- head -->
  <ellipse cx="32" cy="37" rx="24" ry="21" fill="#fffdf8" stroke="#2a2522" stroke-width="3"/>
  <!-- patches -->
  <path d="M13 26 Q23 18 32 20 Q26 32 15 34 Q11 30 13 26 Z" fill="#e8933a"/>
  <path d="M51 26 Q41 18 33 20 Q38 32 49 34 Q53 30 51 26 Z" fill="#2a2522"/>
  <!-- eyes (closed) -->
  <path d="M19 39 Q23 43 27 39" fill="none" stroke="#2a2522" stroke-width="3" stroke-linecap="round"/>
  <path d="M37 39 Q41 43 45 39" fill="none" stroke="#2a2522" stroke-width="3" stroke-linecap="round"/>
  <!-- nose & mouth -->
  <path d="M29.5 45 L34.5 45 L32 48.4 Z" fill="#e0787f"/>
  <path d="M32 48.4 Q32 52 27.5 53 M32 48.4 Q32 52 36.5 53" fill="none" stroke="#2a2522" stroke-width="2.2" stroke-linecap="round"/>
  <!-- whiskers -->
  <path d="M6 40 L16 42 M7 48 L17 46 M58 40 L48 42 M57 48 L47 46" stroke="#fffdf8" stroke-width="2" stroke-linecap="round"/>
</svg>
