<svg xmlns="http://www.w3.org/2000/svg" viewBox="0 0 64 64" role="img" aria-label="AS">
  <rect width="64" height="64" rx="18" fill="#5f8d73"/>
  <circle cx="48" cy="16" r="8" fill="#dfeee4" opacity="0.95"/>
  <path d="M14 47 25.3 17h7.3L44 47h-7.1l-2.1-6.2H23.1L21 47h-7Zm11.3-12.5h7.3l-3.6-10.7-3.7 10.7Z" fill="#ffffff"/>
  <path d="M45.1 47.5c-4.1 0-7.4-1.1-9.9-3.3l3.3-4.7c1.9 1.7 4.1 2.5 6.5 2.5 1.8 0 2.8-.6 2.8-1.8 0-.8-.5-1.4-1.6-1.8l-3.6-1.2c-4-1.3-6-3.5-6-6.8 0-2.3.9-4.1 2.7-5.5 1.8-1.4 4.2-2.1 7.2-2.1 3.3 0 6.1.9 8.4 2.8l-3 4.6c-1.7-1.3-3.5-1.9-5.4-1.9-1.8 0-2.7.5-2.7 1.6 0 .8.6 1.3 1.9 1.7l3.4 1.1c4.1 1.3 6.1 3.6 6.1 7 0 2.4-.9 4.3-2.7 5.7-1.8 1.4-4.3 2.1-7.4 2.1Z" fill="#ffffff"/>
</svg>
