<svg xmlns="http://www.w3.org/2000/svg" viewBox="0 0 130 80" role="img" aria-label="">
  <style>
    .body { transform-box: fill-box; transform-origin: center bottom; animation: breathe 3.2s ease-in-out infinite; }
    .zzz { animation: zfloat 3.2s ease-in-out infinite; }
    .zzz2 { animation: zfloat 3.2s ease-in-out 1.6s infinite; }
    @keyframes breathe { 0%, 100% { transform: scale(1, 1); } 50% { transform: scale(1.015, 1.045); } }
    @keyframes zfloat { 0% { opacity: 0; transform: translateY(4px); } 35% { opacity: 1; } 70%, 100% { opacity: 0; transform: translateY(-6px); } }
  </style>
  <g>
    <g class="body">
      <ellipse cx="65" cy="50" rx="48" ry="26" fill="#fffdf8" stroke="#3a3532" stroke-width="2.5"/>
      <path d="M40 30 Q60 22 78 30 Q70 40 52 40 Q44 36 40 30 Z" fill="#e8933a"/>
      <path d="M88 34 Q104 40 106 52 Q94 56 84 48 Q84 40 88 34 Z" fill="#3a3532"/>
      <path d="M20 58 Q30 70 50 70 Q68 70 74 64" fill="none" stroke="#e8933a" stroke-width="7" stroke-linecap="round"/>
      <path d="M28 34 L32 22 Q33 19 36 22 L41 29 Z" fill="#3a3532" stroke="#3a3532" stroke-width="2.2" stroke-linejoin="round"/>
      <path d="M62 33 L58 22 Q57 19 54 22 L49 29 Z" fill="#e8933a" stroke="#3a3532" stroke-width="2.2" stroke-linejoin="round"/>
      <ellipse cx="45" cy="42" rx="20" ry="16" fill="#fffdf8" stroke="#3a3532" stroke-width="2.5"/>
      <path d="M30 34 Q38 30 44 32 Q40 40 32 40 Q29 37 30 34 Z" fill="#3a3532"/>
      <path d="M37 44 Q40 46 43 44 M50 44 Q53 46 56 44" fill="none" stroke="#3a3532" stroke-width="1.8" stroke-linecap="round"/>
      <path d="M44 50 L47 50 L45.5 52 Z" fill="#e0787f"/>
    </g>
    <path class="zzz" d="M100 16 L110 16 L100 26 L110 26" fill="none" stroke="#8fae94" stroke-width="2.2" stroke-linecap="round" stroke-linejoin="round"/>
    <path class="zzz2" d="M114 6 L121 6 L114 13 L121 13" fill="none" stroke="#8fae94" stroke-width="2.2" stroke-linecap="round" stroke-linejoin="round"/>
  </g>
</svg>
