<svg xmlns="http://www.w3.org/2000/svg" viewBox="0 0 140 100" role="img" aria-label="">
  <style>
    .trot { animation: trot 0.9s ease-in-out infinite; }
    .tail { transform-box: fill-box; transform-origin: left bottom; animation: sway 2.6s ease-in-out infinite alternate; }
    .leg-a { transform-box: fill-box; transform-origin: center top; animation: step 0.9s ease-in-out infinite; }
    .leg-b { transform-box: fill-box; transform-origin: center top; animation: step 0.9s ease-in-out -0.45s infinite; }
    @keyframes trot { 0%, 100% { transform: translateY(0); } 50% { transform: translateY(-1.6px); } }
    @keyframes sway { from { transform: rotate(-5deg); } to { transform: rotate(6deg); } }
    @keyframes step { 0%, 100% { transform: rotate(6deg); } 50% { transform: rotate(-6deg); } }
    @media (prefers-reduced-motion: reduce) { * { animation: none !important; } }
  </style>
  <g class="trot">
    <path class="tail" d="M112 58 Q126 48 122 30 Q121 24 116 24 Q120 34 112 44 Q106 50 104 56 Z" fill="#3a3532"/>
    <path d="M40 60 Q42 46 62 44 L96 44 Q112 46 110 62 Q109 74 96 76 L54 76 Q42 74 40 60 Z" fill="#fffdf8" stroke="#3a3532" stroke-width="2.5"/>
    <path d="M64 44 Q84 42 92 46 Q90 60 76 62 Q66 58 64 44 Z" fill="#e8933a"/>
    <path d="M98 48 Q108 50 108 62 Q100 68 94 62 Q94 52 98 48 Z" fill="#3a3532"/>
    <path class="leg-a" d="M52 76 L50 92" fill="none" stroke="#3a3532" stroke-width="3" stroke-linecap="round"/>
    <path class="leg-b" d="M66 76 L66 92" fill="none" stroke="#3a3532" stroke-width="3" stroke-linecap="round"/>
    <path class="leg-a" d="M84 76 L82 92" fill="none" stroke="#3a3532" stroke-width="3" stroke-linecap="round"/>
    <path class="leg-b" d="M98 74 L100 92" fill="none" stroke="#3a3532" stroke-width="3" stroke-linecap="round"/>
    <g>
      <path d="M22 34 L24 18 Q24.5 15 27.5 17 L36 26 Z" fill="#e8933a" stroke="#3a3532" stroke-width="2.2" stroke-linejoin="round"/>
      <path d="M52 32 L54 18 Q54.5 15 51 16 L42 24 Z" fill="#3a3532" stroke="#3a3532" stroke-width="2.2" stroke-linejoin="round"/>
      <ellipse cx="38" cy="42" rx="20" ry="17" fill="#fffdf8" stroke="#3a3532" stroke-width="2.5"/>
      <path d="M24 30 Q34 24 42 28 Q36 38 26 38 Q22 34 24 30 Z" fill="#e8933a"/>
      <circle cx="32" cy="44" r="2.4" fill="#3a3532"/>
      <circle cx="46" cy="44" r="2.4" fill="#3a3532"/>
      <path d="M37 49 L41 49 L39 52 Z" fill="#e0787f"/>
      <path d="M15 44 L24 45 M16 51 L25 49" stroke="#3a3532" stroke-width="1.5" stroke-linecap="round"/>
    </g>
  </g>
</svg>
